<svg width="25" height="24" viewBox="0 0 25 24" fill="none" xmlns="http://www.w3.org/2000/svg">
<path d="M18.0431 14.2672C18.3288 13.9673 18.3172 13.4926 18.0172 13.2069C17.7173 12.9212 17.2426 12.9328 16.9569 13.2328L18.0431 14.2672ZM11.9569 18.4828C11.6712 18.7827 11.6828 19.2574 11.9828 19.5431C12.2827 19.8288 12.7574 19.8172 13.0431 19.5172L11.9569 18.4828ZM11.9569 19.5172C12.2426 19.8172 12.7173 19.8288 13.0172 19.5431C13.3172 19.2574 13.3288 18.7827 13.0431 18.4828L11.9569 19.5172ZM8.0431 13.2328C7.75744 12.9328 7.28271 12.9212 6.98276 13.2069C6.68281 13.4926 6.67123 13.9673 6.9569 14.2672L8.0431 13.2328ZM11.75 19C11.75 19.4142 12.0858 19.75 12.5 19.75C12.9142 19.75 13.25 19.4142 13.25 19L11.75 19ZM13.25 5C13.25 4.58579 12.9142 4.25 12.5 4.25C12.0858 4.25 11.75 4.58579 11.75 5L13.25 5ZM16.9569 13.2328L11.9569 18.4828L13.0431 19.5172L18.0431 14.2672L16.9569 13.2328ZM13.0431 18.4828L8.0431 13.2328L6.9569 14.2672L11.9569 19.5172L13.0431 18.4828ZM13.25 19L13.25 5L11.75 5L11.75 19L13.25 19Z" fill="white"/>
</svg>
