<svg width="24" height="24" viewBox="0 0 24 24" fill="none" xmlns="http://www.w3.org/2000/svg">
<path fill-rule="evenodd" clip-rule="evenodd" d="M15 8.5C15 8.77614 15.2239 9 15.5 9C15.7761 9 16 8.77614 16 8.5C16 8.22386 15.7761 8 15.5 8C15.2239 8 15 8.22386 15 8.5Z" fill="white" stroke="white" stroke-width="1.5" stroke-linecap="round" stroke-linejoin="round"/>
<path d="M18.25 11C18.25 11.4142 18.5858 11.75 19 11.75C19.4142 11.75 19.75 11.4142 19.75 11H18.25ZM4.99999 15L5.74999 15.001V15H4.99999ZM5.19235 17.8391C5.44041 18.1709 5.91041 18.2387 6.24214 17.9906C6.57386 17.7426 6.64169 17.2726 6.39363 16.9409L5.19235 17.8391ZM19.75 11C19.75 10.5858 19.4142 10.25 19 10.25C18.5858 10.25 18.25 10.5858 18.25 11H19.75ZM8.99999 19V18.25H8.99952L8.99999 19ZM6.39473 16.9423C6.14749 16.61 5.67765 16.541 5.34532 16.7883C5.01299 17.0355 4.94401 17.5053 5.19125 17.8377L6.39473 16.9423ZM19.5037 11.5556C19.8106 11.2774 19.8338 10.8031 19.5556 10.4963C19.2774 10.1894 18.8031 10.1661 18.4962 10.4444L19.5037 11.5556ZM14.3 15.261L13.7962 14.7053L13.7912 14.71L14.3 15.261ZM13.5394 15.523L13.4778 16.2704L13.4778 16.2704L13.5394 15.523ZM12.832 15.14L13.4242 14.6798L13.4238 14.6793L12.832 15.14ZM10.823 12.559L11.4148 12.0983L11.4137 12.0969L10.823 12.559ZM10.0147 12.1754L9.99927 11.4255L10.0147 12.1754ZM9.22299 12.592L8.61372 12.1546L8.61286 12.1558L9.22299 12.592ZM5.18286 16.9538C4.94198 17.2908 5.01986 17.7592 5.35682 18.0001C5.69379 18.241 6.16223 18.1631 6.40312 17.8262L5.18286 16.9538ZM19.75 11V9H18.25V11H19.75ZM19.75 9C19.75 6.37665 17.6233 4.25 15 4.25V5.75C16.7949 5.75 18.25 7.20507 18.25 9H19.75ZM15 4.25H8.99999V5.75H15V4.25ZM8.99999 4.25C6.37664 4.25 4.24999 6.37665 4.24999 9H5.74999C5.74999 7.20507 7.20507 5.75 8.99999 5.75V4.25ZM4.24999 9V15H5.74999V9H4.24999ZM4.24999 14.999C4.24862 16.0227 4.57928 17.0193 5.19235 17.8391L6.39363 16.9409C5.9749 16.3809 5.74906 15.7002 5.74999 15.001L4.24999 14.999ZM18.25 11V15H19.75V11H18.25ZM18.25 15C18.25 16.7949 16.7949 18.25 15 18.25V19.75C17.6233 19.75 19.75 17.6234 19.75 15H18.25ZM15 18.25H8.99999V19.75H15V18.25ZM8.99952 18.25C7.97329 18.2507 7.00728 17.7657 6.39473 16.9423L5.19125 17.8377C6.08704 19.0417 7.49973 19.751 9.00047 19.75L8.99952 18.25ZM18.4962 10.4444L13.7962 14.7054L14.8037 15.8166L19.5037 11.5556L18.4962 10.4444ZM13.7912 14.71C13.7397 14.7575 13.6708 14.7812 13.601 14.7755L13.4778 16.2704C13.9661 16.3107 14.4489 16.1444 14.8088 15.812L13.7912 14.71ZM13.601 14.7755C13.5313 14.7697 13.4671 14.735 13.4242 14.6798L12.2398 15.6002C12.5405 15.9871 12.9895 16.2302 13.4778 16.2704L13.601 14.7755ZM13.4238 14.6793L11.4148 12.0983L10.2312 13.0197L12.2402 15.6007L13.4238 14.6793ZM11.4137 12.0969C11.0742 11.6629 10.5502 11.4142 9.99927 11.4255L10.0302 12.9252C10.1089 12.9236 10.1838 12.9591 10.2323 13.0211L11.4137 12.0969ZM9.99927 11.4255C9.44839 11.4369 8.93503 11.707 8.61372 12.1546L9.83227 13.0294C9.87817 12.9654 9.95151 12.9268 10.0302 12.9252L9.99927 11.4255ZM8.61286 12.1558L5.18286 16.9538L6.40312 17.8262L9.83312 13.0282L8.61286 12.1558Z" fill="white"/>
</svg>
