<svg width="24" height="24" viewBox="0 0 24 24" fill="none" xmlns="http://www.w3.org/2000/svg">
<path d="M4 11.25C3.58579 11.25 3.25 11.5858 3.25 12C3.25 12.4142 3.58579 12.75 4 12.75V11.25ZM12 12.75C12.4142 12.75 12.75 12.4142 12.75 12C12.75 11.5858 12.4142 11.25 12 11.25V12.75ZM12 11.25C11.5858 11.25 11.25 11.5858 11.25 12C11.25 12.4142 11.5858 12.75 12 12.75V11.25ZM20 12.75C20.4142 12.75 20.75 12.4142 20.75 12C20.75 11.5858 20.4142 11.25 20 11.25V12.75ZM12.75 12C12.75 11.5858 12.4142 11.25 12 11.25C11.5858 11.25 11.25 11.5858 11.25 12H12.75ZM11.25 20C11.25 20.4142 11.5858 20.75 12 20.75C12.4142 20.75 12.75 20.4142 12.75 20H11.25ZM11.25 12C11.25 12.4142 11.5858 12.75 12 12.75C12.4142 12.75 12.75 12.4142 12.75 12H11.25ZM12.75 4C12.75 3.58579 12.4142 3.25 12 3.25C11.5858 3.25 11.25 3.58579 11.25 4H12.75ZM4 12.75H12V11.25H4V12.75ZM12 12.75H20V11.25H12V12.75ZM12 12H11.25C11.25 12 11.25 12 11.25 12C11.25 12 11.25 12 11.25 12C11.25 12 11.25 12 11.25 12C11.25 12 11.25 12 11.25 12C11.25 12 11.25 12 11.25 12C11.25 12 11.25 12 11.25 12C11.25 12 11.25 12 11.25 12C11.25 12 11.25 12 11.25 12C11.25 12.0001 11.25 12.0001 11.25 12.0001C11.25 12.0001 11.25 12.0001 11.25 12.0001C11.25 12.0001 11.25 12.0001 11.25 12.0001C11.25 12.0001 11.25 12.0001 11.25 12.0001C11.25 12.0001 11.25 12.0002 11.25 12.0002C11.25 12.0002 11.25 12.0002 11.25 12.0002C11.25 12.0002 11.25 12.0002 11.25 12.0002C11.25 12.0003 11.25 12.0003 11.25 12.0003C11.25 12.0003 11.25 12.0003 11.25 12.0004C11.25 12.0004 11.25 12.0004 11.25 12.0004C11.25 12.0004 11.25 12.0005 11.25 12.0005C11.25 12.0005 11.25 12.0005 11.25 12.0006C11.25 12.0006 11.25 12.0006 11.25 12.0006C11.25 12.0007 11.25 12.0007 11.25 12.0007C11.25 12.0008 11.25 12.0008 11.25 12.0008C11.25 12.0009 11.25 12.0009 11.25 12.0009C11.25 12.001 11.25 12.001 11.25 12.0011C11.25 12.0011 11.25 12.0011 11.25 12.0012C11.25 12.0012 11.25 12.0013 11.25 12.0013C11.25 12.0014 11.25 12.0014 11.25 12.0015C11.25 12.0015 11.25 12.0016 11.25 12.0016C11.25 12.0017 11.25 12.0017 11.25 12.0018C11.25 12.0018 11.25 12.0019 11.25 12.002C11.25 12.002 11.25 12.0021 11.25 12.0021C11.25 12.0022 11.25 12.0023 11.25 12.0023C11.25 12.0024 11.25 12.0025 11.25 12.0026C11.25 12.0026 11.25 12.0027 11.25 12.0028C11.25 12.0029 11.25 12.0029 11.25 12.003C11.25 12.0031 11.25 12.0032 11.25 12.0033C11.25 12.0034 11.25 12.0034 11.25 12.0035C11.25 12.0036 11.25 12.0037 11.25 12.0038C11.25 12.0039 11.25 12.004 11.25 12.0041C11.25 12.0042 11.25 12.0043 11.25 12.0044C11.25 12.0045 11.25 12.0046 11.25 12.0047C11.25 12.0049 11.25 12.005 11.25 12.0051C11.25 12.0052 11.25 12.0053 11.25 12.0054C11.25 12.0056 11.25 12.0057 11.25 12.0058C11.25 12.0059 11.25 12.0061 11.25 12.0062C11.25 12.0063 11.25 12.0065 11.25 12.0066C11.25 12.0067 11.25 12.0069 11.25 12.007C11.25 12.0072 11.25 12.0073 11.25 12.0075C11.25 12.0076 11.25 12.0078 11.25 12.0079C11.25 12.0081 11.25 12.0082 11.25 12.0084C11.25 12.0085 11.25 12.0087 11.25 12.0089C11.25 12.009 11.25 12.0092 11.25 12.0094C11.25 12.0096 11.25 12.0097 11.25 12.0099C11.25 12.0101 11.25 12.0103 11.25 12.0105C11.25 12.0107 11.25 12.0108 11.25 12.011C11.25 12.0112 11.25 12.0114 11.25 12.0116C11.25 12.0118 11.25 12.012 11.25 12.0122C11.25 12.0125 11.25 12.0127 11.25 12.0129C11.25 12.0131 11.25 12.0133 11.25 12.0135C11.25 12.0138 11.25 12.014 11.25 12.0142C11.25 12.0144 11.25 12.0147 11.25 12.0149C11.25 12.0151 11.25 12.0154 11.25 12.0156C11.25 12.0159 11.25 12.0161 11.25 12.0164C11.25 12.0166 11.25 12.0169 11.25 12.0171C11.25 12.0174 11.25 12.0177 11.25 12.0179C11.25 12.0182 11.25 12.0185 11.25 12.0187C11.25 12.019 11.25 12.0193 11.25 12.0196C11.25 12.0199 11.25 12.0202 11.25 12.0204C11.25 12.0207 11.25 12.021 11.25 12.0213C11.25 12.0216 11.25 12.0219 11.25 12.0223C11.25 12.0226 11.25 12.0229 11.25 12.0232C11.25 12.0235 11.25 12.0238 11.25 12.0242C11.25 12.0245 11.25 12.0248 11.25 12.0252C11.25 12.0255 11.25 12.0258 11.25 12.0262C11.25 12.0265 11.25 12.0269 11.25 12.0272C11.25 12.0276 11.25 12.0279 11.25 12.0283C11.25 12.0287 11.25 12.029 11.25 12.0294C11.25 12.0298 11.25 12.0301 11.25 12.0305C11.25 12.0309 11.25 12.0313 11.25 12.0317C11.25 12.0321 11.25 12.0325 11.25 12.0329C11.25 12.0333 11.25 12.0337 11.25 12.0341C11.25 12.0345 11.25 12.0349 11.25 12.0353C11.25 12.0358 11.25 12.0362 11.25 12.0366C11.25 12.037 11.25 12.0375 11.25 12.0379C11.25 12.0384 11.25 12.0388 11.25 12.0393C11.25 12.0397 11.25 12.0402 11.25 12.0406C11.25 12.0411 11.25 12.0416 11.25 12.042C11.25 12.0425 11.25 12.043 11.25 12.0435C11.25 12.0439 11.25 12.0444 11.25 12.0449C11.25 12.0454 11.25 12.0459 11.25 12.0464C11.25 12.0469 11.25 12.0474 11.25 12.0479C11.25 12.0485 11.25 12.049 11.25 12.0495C11.25 12.05 11.25 12.0506 11.25 12.0511C11.25 12.0516 11.25 12.0522 11.25 12.0527C11.25 12.0533 11.25 12.0538 11.25 12.0544C11.25 12.055 11.25 12.0555 11.25 12.0561C11.25 12.0567 11.25 12.0573 11.25 12.0578C11.25 12.0584 11.25 12.059 11.25 12.0596C11.25 12.0602 11.25 12.0608 11.25 12.0614C11.25 12.062 11.25 12.0626 11.25 12.0633C11.25 12.0639 11.25 12.0645 11.25 12.0651C11.25 12.0658 11.25 12.0664 11.25 12.0671C11.25 12.0677 11.25 12.0683 11.25 12.069C11.25 12.0697 11.25 12.0703 11.25 12.071C11.25 12.0717 11.25 12.0723 11.25 12.073C11.25 12.0737 11.25 12.0744 11.25 12.0751C11.25 12.0758 11.25 12.0765 11.25 12.0772C11.25 12.0779 11.25 12.0786 11.25 12.0793C11.25 12.0801 11.25 12.0808 11.25 12.0815C11.25 12.0823 11.25 12.083 11.25 12.0837C11.25 12.0845 11.25 12.0852 11.25 12.086C11.25 12.0868 11.25 12.0875 11.25 12.0883C11.25 12.0891 11.25 12.0899 11.25 12.0907C11.25 12.0914 11.25 12.0922 11.25 12.093C11.25 12.0938 11.25 12.0947 11.25 12.0955C11.25 12.0963 11.25 12.0971 11.25 12.0979C11.25 12.0988 11.25 12.0996 11.25 12.1004C11.25 12.1013 11.25 12.1021 11.25 12.103C11.25 12.1039 11.25 12.1047 11.25 12.1056C11.25 12.1065 11.25 12.1074 11.25 12.1082C11.25 12.1091 11.25 12.11 11.25 12.1109C11.25 12.1118 11.25 12.1127 11.25 12.1136C11.25 12.1146 11.25 12.1155 11.25 12.1164C11.25 12.1174 11.25 12.1183 11.25 12.1192C11.25 12.1202 11.25 12.1211 11.25 12.1221C11.25 12.1231 11.25 12.124 11.25 12.125C11.25 12.126 11.25 12.127 11.25 12.128C11.25 12.1289 11.25 12.1299 11.25 12.131C11.25 12.132 11.25 12.133 11.25 12.134C11.25 12.135 11.25 12.1361 11.25 12.1371C11.25 12.1381 11.25 12.1392 11.25 12.1402C11.25 12.1413 11.25 12.1423 11.25 12.1434C11.25 12.1445 11.25 12.1456 11.25 12.1467C11.25 12.1477 11.25 12.1488 11.25 12.1499C11.25 12.151 11.25 12.1522 11.25 12.1533C11.25 12.1544 11.25 12.1555 11.25 12.1567C11.25 12.1578 11.25 12.1589 11.25 12.1601C11.25 12.1612 11.25 12.1624 11.25 12.1636C11.25 12.1647 11.25 12.1659 11.25 12.1671C11.25 12.1683 11.25 12.1695 11.25 12.1707C11.25 12.1719 11.25 12.1731 11.25 12.1743C11.25 12.1755 11.25 12.1767 11.25 12.178C11.25 12.1792 11.25 12.1805 11.25 12.1817C11.25 12.183 11.25 12.1842 11.25 12.1855C11.25 12.1868 11.25 12.1881 11.25 12.1893C11.25 12.1906 11.25 12.1919 11.25 12.1932C11.25 12.1945 11.25 12.1959 11.25 12.1972C11.25 12.1985 11.25 12.1998 11.25 12.2012C11.25 12.2025 11.25 12.2039 11.25 12.2052C11.25 12.2066 11.25 12.2079 11.25 12.2093C11.25 12.2107 11.25 12.2121 11.25 12.2135C11.25 12.2149 11.25 12.2163 11.25 12.2177C11.25 12.2191 11.25 12.2205 11.25 12.222C11.25 12.2234 11.25 12.2248 11.25 12.2263C11.25 12.2277 11.25 12.2292 11.25 12.2307C11.25 12.2321 11.25 12.2336 11.25 12.2351C11.25 12.2366 11.25 12.2381 11.25 12.2396C11.25 12.2411 11.25 12.2426 11.25 12.2441C11.25 12.2457 11.25 12.2472 11.25 12.2488C11.25 12.2503 11.25 12.2519 11.25 12.2534C11.25 12.255 11.25 12.2566 11.25 12.2581C11.25 12.2597 11.25 12.2613 11.25 12.2629C11.25 12.2645 11.25 12.2661 11.25 12.2678C11.25 12.2694 11.25 12.271 11.25 12.2727C11.25 12.2743 11.25 12.2759 11.25 12.2776C11.25 12.2793 11.25 12.2809 11.25 12.2826C11.25 12.2843 11.25 12.286 11.25 12.2877C11.25 12.2894 11.25 12.2911 11.25 12.2928C11.25 12.2946 11.25 12.2963 11.25 12.298C11.25 12.2998 11.25 12.3015 11.25 12.3033C11.25 12.3051 11.25 12.3068 11.25 12.3086C11.25 12.3104 11.25 12.3122 11.25 12.314C11.25 12.3158 11.25 12.3176 11.25 12.3194C11.25 12.3213 11.25 12.3231 11.25 12.325C11.25 12.3268 11.25 12.3287 11.25 12.3305C11.25 12.3324 11.25 12.3343 11.25 12.3362C11.25 12.338 11.25 12.3399 11.25 12.3419C11.25 12.3438 11.25 12.3457 11.25 12.3476C11.25 12.3496 11.25 12.3515 11.25 12.3534C11.25 12.3554 11.25 12.3574 11.25 12.3593C11.25 12.3613 11.25 12.3633 11.25 12.3653C11.25 12.3673 11.25 12.3693 11.25 12.3713C11.25 12.3733 11.25 12.3754 11.25 12.3774C11.25 12.3794 11.25 12.3815 11.25 12.3836C11.25 12.3856 11.25 12.3877 11.25 12.3898C11.25 12.3919 11.25 12.394 11.25 12.3961C11.25 12.3982 11.25 12.4003 11.25 12.4024C11.25 12.4045 11.25 12.4067 11.25 12.4088C11.25 12.411 11.25 12.4131 11.25 12.4153C11.25 12.4175 11.25 12.4197 11.25 12.4219C11.25 12.4241 11.25 12.4263 11.25 12.4285C11.25 12.4307 11.25 12.433 11.25 12.4352C11.25 12.4374 11.25 12.4397 11.25 12.442C11.25 12.4442 11.25 12.4465 11.25 12.4488C11.25 12.4511 11.25 12.4534 11.25 12.4557C11.25 12.458 11.25 12.4603 11.25 12.4627C11.25 12.465 11.25 12.4674 11.25 12.4697C11.25 12.4721 11.25 12.4745 11.25 12.4768C11.25 12.4792 11.25 12.4816 11.25 12.484C11.25 12.4864 11.25 12.4889 11.25 12.4913C11.25 12.4937 11.25 12.4962 11.25 12.4986C11.25 12.5011 11.25 12.5035 11.25 12.506C11.25 12.5085 11.25 12.511 11.25 12.5135C11.25 12.516 11.25 12.5185 11.25 12.5211C11.25 12.5236 11.25 12.5261 11.25 12.5287C11.25 12.5312 11.25 12.5338 11.25 12.5364C11.25 12.539 11.25 12.5416 11.25 12.5442C11.25 12.5468 11.25 12.5494 11.25 12.552C11.25 12.5546 11.25 12.5573 11.25 12.5599C11.25 12.5626 11.25 12.5652 11.25 12.5679C11.25 12.5706 11.25 12.5733 11.25 12.576C11.25 12.5787 11.25 12.5814 11.25 12.5842C11.25 12.5869 11.25 12.5896 11.25 12.5924C11.25 12.5951 11.25 12.5979 11.25 12.6007C11.25 12.6035 11.25 12.6063 11.25 12.6091C11.25 12.6119 11.25 12.6147 11.25 12.6175C11.25 12.6204 11.25 12.6232 11.25 12.6261C11.25 12.6289 11.25 12.6318 11.25 12.6347C11.25 12.6376 11.25 12.6405 11.25 12.6434C11.25 12.6463 11.25 12.6492 11.25 12.6521C11.25 12.6551 11.25 12.658 11.25 12.661C11.25 12.664 11.25 12.6669 11.25 12.6699C11.25 12.6729 11.25 12.6759 11.25 12.6789C11.25 12.682 11.25 12.685 11.25 12.688C11.25 12.6911 11.25 12.6941 11.25 12.6972C11.25 12.7003 11.25 12.7034 11.25 12.7065C11.25 12.7096 11.25 12.7127 11.25 12.7158C11.25 12.7189 11.25 12.7221 11.25 12.7252C11.25 12.7284 11.25 12.7315 11.25 12.7347C11.25 12.7379 11.25 12.7411 11.25 12.7443C11.25 12.7475 11.25 12.7507 11.25 12.754C11.25 12.7572 11.25 12.7604 11.25 12.7637C11.25 12.767 11.25 12.7703 11.25 12.7735C11.25 12.7768 11.25 12.7801 11.25 12.7835C11.25 12.7868 11.25 12.7901 11.25 12.7935C11.25 12.7968 11.25 12.8002 11.25 12.8036C11.25 12.8069 11.25 12.8103 11.25 12.8137C11.25 12.8171 11.25 12.8205 11.25 12.824C11.25 12.8274 11.25 12.8309 11.25 12.8343C11.25 12.8378 11.25 12.8413 11.25 12.8448C11.25 12.8482 11.25 12.8517 11.25 12.8553C11.25 12.8588 11.25 12.8623 11.25 12.8659C11.25 12.8694 11.25 12.873 11.25 12.8766C11.25 12.8801 11.25 12.8837 11.25 12.8873C11.25 12.8909 11.25 12.8946 11.25 12.8982C11.25 12.9018 11.25 12.9055 11.25 12.9092C11.25 12.9128 11.25 12.9165 11.25 12.9202C11.25 12.9239 11.25 12.9276 11.25 12.9313C11.25 12.9351 11.25 12.9388 11.25 12.9425C11.25 12.9463 11.25 12.9501 11.25 12.9539C11.25 12.9576 11.25 12.9614 11.25 12.9653C11.25 12.9691 11.25 12.9729 11.25 12.9768C11.25 12.9806 11.25 12.9845 11.25 12.9883C11.25 12.9922 11.25 12.9961 11.25 13C11.25 13.0039 11.25 13.0078 11.25 13.0118C11.25 13.0157 11.25 13.0197 11.25 13.0236C11.25 13.0276 11.25 13.0316 11.25 13.0356C11.25 13.0396 11.25 13.0436 11.25 13.0476C11.25 13.0516 11.25 13.0557 11.25 13.0598C11.25 13.0638 11.25 13.0679 11.25 13.072C11.25 13.0761 11.25 13.0802 11.25 13.0843C11.25 13.0884 11.25 13.0926 11.25 13.0967C11.25 13.1009 11.25 13.105 11.25 13.1092C11.25 13.1134 11.25 13.1176 11.25 13.1218C11.25 13.126 11.25 13.1303 11.25 13.1345C11.25 13.1388 11.25 13.143 11.25 13.1473C11.25 13.1516 11.25 13.1559 11.25 13.1602C11.25 13.1645 11.25 13.1689 11.25 13.1732C11.25 13.1775 11.25 13.1819 11.25 13.1863C11.25 13.1907 11.25 13.1951 11.25 13.1995C11.25 13.2039 11.25 13.2083 11.25 13.2127C11.25 13.2172 11.25 13.2216 11.25 13.2261C11.25 13.2306 11.25 13.2351 11.25 13.2396C11.25 13.2441 11.25 13.2486 11.25 13.2532C11.25 13.2577 11.25 13.2623 11.25 13.2668C11.25 13.2714 11.25 13.276 11.25 13.2806C11.25 13.2852 11.25 13.2898 11.25 13.2945C11.25 13.2991 11.25 13.3038 11.25 13.3084C11.25 13.3131 11.25 13.3178 11.25 13.3225C11.25 13.3272 11.25 13.3319 11.25 13.3367C11.25 13.3414 11.25 13.3462 11.25 13.351C11.25 13.3557 11.25 13.3605 11.25 13.3653C11.25 13.3701 11.25 13.375 11.25 13.3798C11.25 13.3846 11.25 13.3895 11.25 13.3944C11.25 13.3993 11.25 13.4041 11.25 13.4091C11.25 13.414 11.25 13.4189 11.25 13.4238C11.25 13.4288 11.25 13.4337 11.25 13.4387C11.25 13.4437 11.25 13.4487 11.25 13.4537C11.25 13.4587 11.25 13.4637 11.25 13.4688C11.25 13.4738 11.25 13.4789 11.25 13.484C11.25 13.4891 11.25 13.4942 11.25 13.4993C11.25 13.5044 11.25 13.5095 11.25 13.5147C11.25 13.5198 11.25 13.525 11.25 13.5302C11.25 13.5354 11.25 13.5406 11.25 13.5458C11.25 13.551 11.25 13.5563 11.25 13.5615C11.25 13.5668 11.25 13.5721 11.25 13.5774C11.25 13.5827 11.25 13.588 11.25 13.5933C11.25 13.5986 11.25 13.604 11.25 13.6093C11.25 13.6147 11.25 13.6201 11.25 13.6255C11.25 13.6309 11.25 13.6363 11.25 13.6417C11.25 13.6472 11.25 13.6526 11.25 13.6581C11.25 13.6636 11.25 13.6691 11.25 13.6746C11.25 13.6801 11.25 13.6856 11.25 13.6911C11.25 13.6967 11.25 13.7023 11.25 13.7078C11.25 13.7134 11.25 13.719 11.25 13.7246C11.25 13.7302 11.25 13.7359 11.25 13.7415C11.25 13.7472 11.25 13.7529 11.25 13.7586C11.25 13.7642 11.25 13.77 11.25 13.7757C11.25 13.7814 11.25 13.7872 11.25 13.7929C11.25 13.7987 11.25 13.8045 11.25 13.8103C11.25 13.8161 11.25 13.8219 11.25 13.8277C11.25 13.8336 11.25 13.8394 11.25 13.8453C11.25 13.8512 11.25 13.8571 11.25 13.863C11.25 13.8689 11.25 13.8748 11.25 13.8808C11.25 13.8868 11.25 13.8927 11.25 13.8987C11.25 13.9047 11.25 13.9107 11.25 13.9167C11.25 13.9228 11.25 13.9288 11.25 13.9349C11.25 13.9409 11.25 13.947 11.25 13.9531C11.25 13.9592 11.25 13.9654 11.25 13.9715C11.25 13.9776 11.25 13.9838 11.25 13.99C11.25 13.9962 11.25 14.0024 11.25 14.0086C11.25 14.0148 11.25 14.021 11.25 14.0273C11.25 14.0335 11.25 14.0398 11.25 14.0461C11.25 14.0524 11.25 14.0587 11.25 14.0651C11.25 14.0714 11.25 14.0778 11.25 14.0841C11.25 14.0905 11.25 14.0969 11.25 14.1033C11.25 14.1097 11.25 14.1162 11.25 14.1226C11.25 14.1291 11.25 14.1355 11.25 14.142C11.25 14.1485 11.25 14.155 11.25 14.1615C11.25 14.1681 11.25 14.1746 11.25 14.1812C11.25 14.1878 11.25 14.1944 11.25 14.201C11.25 14.2076 11.25 14.2142 11.25 14.2209C11.25 14.2275 11.25 14.2342 11.25 14.2409C11.25 14.2476 11.25 14.2543 11.25 14.261C11.25 14.2677 11.25 14.2745 11.25 14.2812C11.25 14.288 11.25 14.2948 11.25 14.3016C11.25 14.3084 11.25 14.3152 11.25 14.3221C11.25 14.3289 11.25 14.3358 11.25 14.3427C11.25 14.3496 11.25 14.3565 11.25 14.3634C11.25 14.3704 11.25 14.3773 11.25 14.3843C11.25 14.3913 11.25 14.3983 11.25 14.4053C11.25 14.4123 11.25 14.4193 11.25 14.4264C11.25 14.4334 11.25 14.4405 11.25 14.4476C11.25 14.4547 11.25 14.4618 11.25 14.4689C11.25 14.4761 11.25 14.4832 11.25 14.4904C11.25 14.4976 11.25 14.5048 11.25 14.512C11.25 14.5192 11.25 14.5265 11.25 14.5337C11.25 14.541 11.25 14.5483 11.25 14.5556C11.25 14.5629 11.25 14.5702 11.25 14.5775C11.25 14.5849 11.25 14.5922 11.25 14.5996C11.25 14.607 11.25 14.6144 11.25 14.6218C11.25 14.6293 11.25 14.6367 11.25 14.6442C11.25 14.6516 11.25 14.6591 11.25 14.6666C11.25 14.6742 11.25 14.6817 11.25 14.6892C11.25 14.6968 11.25 14.7044 11.25 14.712C11.25 14.7196 11.25 14.7272 11.25 14.7348C11.25 14.7425 11.25 14.7501 11.25 14.7578C11.25 14.7655 11.25 14.7732 11.25 14.7809C11.25 14.7886 11.25 14.7964 11.25 14.8042C11.25 14.8119 11.25 14.8197 11.25 14.8275C11.25 14.8353 11.25 14.8432 11.25 14.851C11.25 14.8589 11.25 14.8668 11.25 14.8747C11.25 14.8825 11.25 14.8905 11.25 14.8984C11.25 14.9063 11.25 14.9143 11.25 14.9223C11.25 14.9303 11.25 14.9383 11.25 14.9463C11.25 14.9543 11.25 14.9624 11.25 14.9705C11.25 14.9785 11.25 14.9866 11.25 14.9947C11.25 15.0029 11.25 15.011 11.25 15.0192C11.25 15.0273 11.25 15.0355 11.25 15.0437C11.25 15.0519 11.25 15.0601 11.25 15.0684C11.25 15.0766 11.25 15.0849 11.25 15.0932C11.25 15.1015 11.25 15.1098 11.25 15.1181C11.25 15.1265 11.25 15.1348 11.25 15.1432C11.25 15.1516 11.25 15.16 11.25 15.1684C11.25 15.1769 11.25 15.1853 11.25 15.1938C11.25 15.2023 11.25 15.2107 11.25 15.2193C11.25 15.2278 11.25 15.2363 11.25 15.2449C11.25 15.2534 11.25 15.262 11.25 15.2706C11.25 15.2792 11.25 15.2879 11.25 15.2965C11.25 15.3052 11.25 15.3138 11.25 15.3225C11.25 15.3312 11.25 15.34 11.25 15.3487C11.25 15.3574 11.25 15.3662 11.25 15.375C11.25 15.3838 11.25 15.3926 11.25 15.4014C11.25 15.4103 11.25 15.4191 11.25 15.428C11.25 15.4369 11.25 15.4458 11.25 15.4547C11.25 15.4637 11.25 15.4726 11.25 15.4816C11.25 15.4905 11.25 15.4995 11.25 15.5086C11.25 15.5176 11.25 15.5266 11.25 15.5357C11.25 15.5448 11.25 15.5538 11.25 15.563C11.25 15.5721 11.25 15.5812 11.25 15.5904C11.25 15.5995 11.25 15.6087 11.25 15.6179C11.25 15.6271 11.25 15.6364 11.25 15.6456C11.25 15.6549 11.25 15.6641 11.25 15.6734C11.25 15.6827 11.25 15.6921 11.25 15.7014C11.25 15.7107 11.25 15.7201 11.25 15.7295C11.25 15.7389 11.25 15.7483 11.25 15.7578C11.25 15.7672 11.25 15.7767 11.25 15.7862C11.25 15.7957 11.25 15.8052 11.25 15.8147C11.25 15.8242 11.25 15.8338 11.25 15.8434C11.25 15.853 11.25 15.8626 11.25 15.8722C11.25 15.8818 11.25 15.8915 11.25 15.9012C11.25 15.9109 11.25 15.9206 11.25 15.9303C11.25 15.94 11.25 15.9498 11.25 15.9595C11.25 15.9693 11.25 15.9791 11.25 15.989C11.25 15.9988 11.25 16.0086 11.25 16.0185C11.25 16.0284 11.25 16.0383 11.25 16.0482C11.25 16.0581 11.25 16.0681 11.25 16.078C11.25 16.088 11.25 16.098 11.25 16.108C11.25 16.118 11.25 16.1281 11.25 16.1381C11.25 16.1482 11.25 16.1583 11.25 16.1684C11.25 16.1785 11.25 16.1887 11.25 16.1989C11.25 16.209 11.25 16.2192 11.25 16.2294C11.25 16.2396 11.25 16.2499 11.25 16.2601C11.25 16.2704 11.25 16.2807 11.25 16.291C11.25 16.3013 11.25 16.3117 11.25 16.322C11.25 16.3324 11.25 16.3428 11.25 16.3532C11.25 16.3636 11.25 16.3741 11.25 16.3845C11.25 16.395 11.25 16.4055 11.25 16.416C11.25 16.4265 11.25 16.437 11.25 16.4476C11.25 16.4582 11.25 16.4688 11.25 16.4794C11.25 16.49 11.25 16.5006 11.25 16.5113C11.25 16.522 11.25 16.5327 11.25 16.5434C11.25 16.5541 11.25 16.5648 11.25 16.5756C11.25 16.5864 11.25 16.5972 11.25 16.608C11.25 16.6188 11.25 16.6296 11.25 16.6405C11.25 16.6514 11.25 16.6623 11.25 16.6732C11.25 16.6841 11.25 16.695 11.25 16.706C11.25 16.717 11.25 16.728 11.25 16.739C11.25 16.75 11.25 16.7611 11.25 16.7721C11.25 16.7832 11.25 16.7943 11.25 16.8054C11.25 16.8165 11.25 16.8277 11.25 16.8389C11.25 16.85 11.25 16.8612 11.25 16.8725C11.25 16.8837 11.25 16.895 11.25 16.9062C11.25 16.9175 11.25 16.9288 11.25 16.9401C11.25 16.9515 11.25 16.9628 11.25 16.9742C11.25 16.9856 11.25 16.997 11.25 17.0084C11.25 17.0199 11.25 17.0313 11.25 17.0428C11.25 17.0543 11.25 17.0658 11.25 17.0774C11.25 17.0889 11.25 17.1005 11.25 17.1121C11.25 17.1237 11.25 17.1353 11.25 17.1469C11.25 17.1586 11.25 17.1702 11.25 17.1819C11.25 17.1936 11.25 17.2054 11.25 17.2171C11.25 17.2289 11.25 17.2406 11.25 17.2524C11.25 17.2642 11.25 17.2761 11.25 17.2879C11.25 17.2998 11.25 17.3117 11.25 17.3236C11.25 17.3355 11.25 17.3474 11.25 17.3594C11.25 17.3713 11.25 17.3833 11.25 17.3953C11.25 17.4074 11.25 17.4194 11.25 17.4315C11.25 17.4435 11.25 17.4556 11.25 17.4678C11.25 17.4799 11.25 17.492 11.25 17.5042C11.25 17.5164 11.25 17.5286 11.25 17.5408C11.25 17.5531 11.25 17.5653 11.25 17.5776C11.25 17.5899 11.25 17.6022 11.25 17.6145C11.25 17.6269 11.25 17.6393 11.25 17.6516C11.25 17.664 11.25 17.6765 11.25 17.6889C11.25 17.7014 11.25 17.7138 11.25 17.7263C11.25 17.7388 11.25 17.7514 11.25 17.7639C11.25 17.7765 11.25 17.7891 11.25 17.8017C11.25 17.8143 11.25 17.8269 11.25 17.8396C11.25 17.8523 11.25 17.865 11.25 17.8777C11.25 17.8904 11.25 17.9032 11.25 17.9159C11.25 17.9287 11.25 17.9415 11.25 17.9544C11.25 17.9672 11.25 17.98 11.25 17.9929C11.25 18.0058 11.25 18.0187 11.25 18.0317C11.25 18.0446 11.25 18.0576 11.25 18.0706C11.25 18.0836 11.25 18.0966 11.25 18.1097C11.25 18.1227 11.25 18.1358 11.25 18.1489C11.25 18.162 11.25 18.1752 11.25 18.1883C11.25 18.2015 11.25 18.2147 11.25 18.2279C11.25 18.2411 11.25 18.2544 11.25 18.2677C11.25 18.281 11.25 18.2943 11.25 18.3076C11.25 18.3209 11.25 18.3343 11.25 18.3477C11.25 18.3611 11.25 18.3745 11.25 18.3879C11.25 18.4014 11.25 18.4149 11.25 18.4284C11.25 18.4419 11.25 18.4554 11.25 18.469C11.25 18.4825 11.25 18.4961 11.25 18.5097C11.25 18.5234 11.25 18.537 11.25 18.5507C11.25 18.5644 11.25 18.5781 11.25 18.5918C11.25 18.6055 11.25 18.6193 11.25 18.6331C11.25 18.6469 11.25 18.6607 11.25 18.6745C11.25 18.6884 11.25 18.7023 11.25 18.7162C11.25 18.7301 11.25 18.744 11.25 18.758C11.25 18.7719 11.25 18.7859 11.25 18.7999C11.25 18.814 11.25 18.828 11.25 18.8421C11.25 18.8562 11.25 18.8703 11.25 18.8844C11.25 18.8986 11.25 18.9127 11.25 18.9269C11.25 18.9411 11.25 18.9553 11.25 18.9696C11.25 18.9838 11.25 18.9981 11.25 19.0124C11.25 19.0267 11.25 19.0411 11.25 19.0555C11.25 19.0698 11.25 19.0842 11.25 19.0986C11.25 19.1131 11.25 19.1275 11.25 19.142C11.25 19.1565 11.25 19.171 11.25 19.1856C11.25 19.2001 11.25 19.2147 11.25 19.2293C11.25 19.2439 11.25 19.2585 11.25 19.2732C11.25 19.2879 11.25 19.3026 11.25 19.3173C11.25 19.332 11.25 19.3468 11.25 19.3615C11.25 19.3763 11.25 19.3911 11.25 19.406C11.25 19.4208 11.25 19.4357 11.25 19.4506C11.25 19.4655 11.25 19.4804 11.25 19.4954C11.25 19.5103 11.25 19.5253 11.25 19.5404C11.25 19.5554 11.25 19.5704 11.25 19.5855C11.25 19.6006 11.25 19.6157 11.25 19.6308C11.25 19.646 11.25 19.6611 11.25 19.6763C11.25 19.6915 11.25 19.7068 11.25 19.722C11.25 19.7373 11.25 19.7526 11.25 19.7679C11.25 19.7832 11.25 19.7986 11.25 19.814C11.25 19.8293 11.25 19.8448 11.25 19.8602C11.25 19.8756 11.25 19.8911 11.25 19.9066C11.25 19.9221 11.25 19.9377 11.25 19.9532C11.25 19.9688 11.25 19.9844 11.25 20H12.75C12.75 19.9844 12.75 19.9688 12.75 19.9532C12.75 19.9377 12.75 19.9221 12.75 19.9066C12.75 19.8911 12.75 19.8756 12.75 19.8602C12.75 19.8448 12.75 19.8293 12.75 19.814C12.75 19.7986 12.75 19.7832 12.75 19.7679C12.75 19.7526 12.75 19.7373 12.75 19.722C12.75 19.7068 12.75 19.6915 12.75 19.6763C12.75 19.6611 12.75 19.646 12.75 19.6308C12.75 19.6157 12.75 19.6006 12.75 19.5855C12.75 19.5704 12.75 19.5554 12.75 19.5404C12.75 19.5253 12.75 19.5103 12.75 19.4954C12.75 19.4804 12.75 19.4655 12.75 19.4506C12.75 19.4357 12.75 19.4208 12.75 19.406C12.75 19.3911 12.75 19.3763 12.75 19.3615C12.75 19.3468 12.75 19.332 12.75 19.3173C12.75 19.3026 12.75 19.2879 12.75 19.2732C12.75 19.2585 12.75 19.2439 12.75 19.2293C12.75 19.2147 12.75 19.2001 12.75 19.1856C12.75 19.171 12.75 19.1565 12.75 19.142C12.75 19.1275 12.75 19.1131 12.75 19.0986C12.75 19.0842 12.75 19.0698 12.75 19.0555C12.75 19.0411 12.75 19.0267 12.75 19.0124C12.75 18.9981 12.75 18.9838 12.75 18.9696C12.75 18.9553 12.75 18.9411 12.75 18.9269C12.75 18.9127 12.75 18.8986 12.75 18.8844C12.75 18.8703 12.75 18.8562 12.75 18.8421C12.75 18.828 12.75 18.814 12.75 18.7999C12.75 18.7859 12.75 18.7719 12.75 18.758C12.75 18.744 12.75 18.7301 12.75 18.7162C12.75 18.7023 12.75 18.6884 12.75 18.6745C12.75 18.6607 12.75 18.6469 12.75 18.6331C12.75 18.6193 12.75 18.6055 12.75 18.5918C12.75 18.5781 12.75 18.5644 12.75 18.5507C12.75 18.537 12.75 18.5234 12.75 18.5097C12.75 18.4961 12.75 18.4825 12.75 18.469C12.75 18.4554 12.75 18.4419 12.75 18.4284C12.75 18.4149 12.75 18.4014 12.75 18.3879C12.75 18.3745 12.75 18.3611 12.75 18.3477C12.75 18.3343 12.75 18.3209 12.75 18.3076C12.75 18.2943 12.75 18.281 12.75 18.2677C12.75 18.2544 12.75 18.2411 12.75 18.2279C12.75 18.2147 12.75 18.2015 12.75 18.1883C12.75 18.1752 12.75 18.162 12.75 18.1489C12.75 18.1358 12.75 18.1227 12.75 18.1097C12.75 18.0966 12.75 18.0836 12.75 18.0706C12.75 18.0576 12.75 18.0446 12.75 18.0317C12.75 18.0187 12.75 18.0058 12.75 17.9929C12.75 17.98 12.75 17.9672 12.75 17.9544C12.75 17.9415 12.75 17.9287 12.75 17.9159C12.75 17.9032 12.75 17.8904 12.75 17.8777C12.75 17.865 12.75 17.8523 12.75 17.8396C12.75 17.8269 12.75 17.8143 12.75 17.8017C12.75 17.7891 12.75 17.7765 12.75 17.7639C12.75 17.7514 12.75 17.7388 12.75 17.7263C12.75 17.7138 12.75 17.7014 12.75 17.6889C12.75 17.6765 12.75 17.664 12.75 17.6516C12.75 17.6393 12.75 17.6269 12.75 17.6145C12.75 17.6022 12.75 17.5899 12.75 17.5776C12.75 17.5653 12.75 17.5531 12.75 17.5408C12.75 17.5286 12.75 17.5164 12.75 17.5042C12.75 17.492 12.75 17.4799 12.75 17.4678C12.75 17.4556 12.75 17.4435 12.75 17.4315C12.75 17.4194 12.75 17.4074 12.75 17.3953C12.75 17.3833 12.75 17.3713 12.75 17.3594C12.75 17.3474 12.75 17.3355 12.75 17.3236C12.75 17.3117 12.75 17.2998 12.75 17.2879C12.75 17.2761 12.75 17.2642 12.75 17.2524C12.75 17.2406 12.75 17.2289 12.75 17.2171C12.75 17.2054 12.75 17.1936 12.75 17.1819C12.75 17.1702 12.75 17.1586 12.75 17.1469C12.75 17.1353 12.75 17.1237 12.75 17.1121C12.75 17.1005 12.75 17.0889 12.75 17.0774C12.75 17.0658 12.75 17.0543 12.75 17.0428C12.75 17.0313 12.75 17.0199 12.75 17.0084C12.75 16.997 12.75 16.9856 12.75 16.9742C12.75 16.9628 12.75 16.9515 12.75 16.9401C12.75 16.9288 12.75 16.9175 12.75 16.9062C12.75 16.895 12.75 16.8837 12.75 16.8725C12.75 16.8612 12.75 16.85 12.75 16.8389C12.75 16.8277 12.75 16.8165 12.75 16.8054C12.75 16.7943 12.75 16.7832 12.75 16.7721C12.75 16.7611 12.75 16.75 12.75 16.739C12.75 16.728 12.75 16.717 12.75 16.706C12.75 16.695 12.75 16.6841 12.75 16.6732C12.75 16.6623 12.75 16.6514 12.75 16.6405C12.75 16.6296 12.75 16.6188 12.75 16.608C12.75 16.5972 12.75 16.5864 12.75 16.5756C12.75 16.5648 12.75 16.5541 12.75 16.5434C12.75 16.5327 12.75 16.522 12.75 16.5113C12.75 16.5006 12.75 16.49 12.75 16.4794C12.75 16.4688 12.75 16.4582 12.75 16.4476C12.75 16.437 12.75 16.4265 12.75 16.416C12.75 16.4055 12.75 16.395 12.75 16.3845C12.75 16.3741 12.75 16.3636 12.75 16.3532C12.75 16.3428 12.75 16.3324 12.75 16.322C12.75 16.3117 12.75 16.3013 12.75 16.291C12.75 16.2807 12.75 16.2704 12.75 16.2601C12.75 16.2499 12.75 16.2396 12.75 16.2294C12.75 16.2192 12.75 16.209 12.75 16.1989C12.75 16.1887 12.75 16.1785 12.75 16.1684C12.75 16.1583 12.75 16.1482 12.75 16.1381C12.75 16.1281 12.75 16.118 12.75 16.108C12.75 16.098 12.75 16.088 12.75 16.078C12.75 16.0681 12.75 16.0581 12.75 16.0482C12.75 16.0383 12.75 16.0284 12.75 16.0185C12.75 16.0086 12.75 15.9988 12.75 15.989C12.75 15.9791 12.75 15.9693 12.75 15.9595C12.75 15.9498 12.75 15.94 12.75 15.9303C12.75 15.9206 12.75 15.9109 12.75 15.9012C12.75 15.8915 12.75 15.8818 12.75 15.8722C12.75 15.8626 12.75 15.853 12.75 15.8434C12.75 15.8338 12.75 15.8242 12.75 15.8147C12.75 15.8052 12.75 15.7957 12.75 15.7862C12.75 15.7767 12.75 15.7672 12.75 15.7578C12.75 15.7483 12.75 15.7389 12.75 15.7295C12.75 15.7201 12.75 15.7107 12.75 15.7014C12.75 15.6921 12.75 15.6827 12.75 15.6734C12.75 15.6641 12.75 15.6549 12.75 15.6456C12.75 15.6364 12.75 15.6271 12.75 15.6179C12.75 15.6087 12.75 15.5995 12.75 15.5904C12.75 15.5812 12.75 15.5721 12.75 15.563C12.75 15.5538 12.75 15.5448 12.75 15.5357C12.75 15.5266 12.75 15.5176 12.75 15.5086C12.75 15.4995 12.75 15.4905 12.75 15.4816C12.75 15.4726 12.75 15.4637 12.75 15.4547C12.75 15.4458 12.75 15.4369 12.75 15.428C12.75 15.4191 12.75 15.4103 12.75 15.4014C12.75 15.3926 12.75 15.3838 12.75 15.375C12.75 15.3662 12.75 15.3574 12.75 15.3487C12.75 15.34 12.75 15.3312 12.75 15.3225C12.75 15.3138 12.75 15.3052 12.75 15.2965C12.75 15.2879 12.75 15.2792 12.75 15.2706C12.75 15.262 12.75 15.2534 12.75 15.2449C12.75 15.2363 12.75 15.2278 12.75 15.2193C12.75 15.2107 12.75 15.2023 12.75 15.1938C12.75 15.1853 12.75 15.1769 12.75 15.1684C12.75 15.16 12.75 15.1516 12.75 15.1432C12.75 15.1348 12.75 15.1265 12.75 15.1181C12.75 15.1098 12.75 15.1015 12.75 15.0932C12.75 15.0849 12.75 15.0766 12.75 15.0684C12.75 15.0601 12.75 15.0519 12.75 15.0437C12.75 15.0355 12.75 15.0273 12.75 15.0192C12.75 15.011 12.75 15.0029 12.75 14.9947C12.75 14.9866 12.75 14.9785 12.75 14.9705C12.75 14.9624 12.75 14.9543 12.75 14.9463C12.75 14.9383 12.75 14.9303 12.75 14.9223C12.75 14.9143 12.75 14.9063 12.75 14.8984C12.75 14.8905 12.75 14.8825 12.75 14.8747C12.75 14.8668 12.75 14.8589 12.75 14.851C12.75 14.8432 12.75 14.8353 12.75 14.8275C12.75 14.8197 12.75 14.8119 12.75 14.8042C12.75 14.7964 12.75 14.7886 12.75 14.7809C12.75 14.7732 12.75 14.7655 12.75 14.7578C12.75 14.7501 12.75 14.7425 12.75 14.7348C12.75 14.7272 12.75 14.7196 12.75 14.712C12.75 14.7044 12.75 14.6968 12.75 14.6892C12.75 14.6817 12.75 14.6742 12.75 14.6666C12.75 14.6591 12.75 14.6516 12.75 14.6442C12.75 14.6367 12.75 14.6293 12.75 14.6218C12.75 14.6144 12.75 14.607 12.75 14.5996C12.75 14.5922 12.75 14.5849 12.75 14.5775C12.75 14.5702 12.75 14.5629 12.75 14.5556C12.75 14.5483 12.75 14.541 12.75 14.5337C12.75 14.5265 12.75 14.5192 12.75 14.512C12.75 14.5048 12.75 14.4976 12.75 14.4904C12.75 14.4832 12.75 14.4761 12.75 14.4689C12.75 14.4618 12.75 14.4547 12.75 14.4476C12.75 14.4405 12.75 14.4334 12.75 14.4264C12.75 14.4193 12.75 14.4123 12.75 14.4053C12.75 14.3983 12.75 14.3913 12.75 14.3843C12.75 14.3773 12.75 14.3704 12.75 14.3634C12.75 14.3565 12.75 14.3496 12.75 14.3427C12.75 14.3358 12.75 14.3289 12.75 14.3221C12.75 14.3152 12.75 14.3084 12.75 14.3016C12.75 14.2948 12.75 14.288 12.75 14.2812C12.75 14.2745 12.75 14.2677 12.75 14.261C12.75 14.2543 12.75 14.2476 12.75 14.2409C12.75 14.2342 12.75 14.2275 12.75 14.2209C12.75 14.2142 12.75 14.2076 12.75 14.201C12.75 14.1944 12.75 14.1878 12.75 14.1812C12.75 14.1746 12.75 14.1681 12.75 14.1615C12.75 14.155 12.75 14.1485 12.75 14.142C12.75 14.1355 12.75 14.1291 12.75 14.1226C12.75 14.1162 12.75 14.1097 12.75 14.1033C12.75 14.0969 12.75 14.0905 12.75 14.0841C12.75 14.0778 12.75 14.0714 12.75 14.0651C12.75 14.0587 12.75 14.0524 12.75 14.0461C12.75 14.0398 12.75 14.0335 12.75 14.0273C12.75 14.021 12.75 14.0148 12.75 14.0086C12.75 14.0024 12.75 13.9962 12.75 13.99C12.75 13.9838 12.75 13.9776 12.75 13.9715C12.75 13.9654 12.75 13.9592 12.75 13.9531C12.75 13.947 12.75 13.9409 12.75 13.9349C12.75 13.9288 12.75 13.9228 12.75 13.9167C12.75 13.9107 12.75 13.9047 12.75 13.8987C12.75 13.8927 12.75 13.8868 12.75 13.8808C12.75 13.8748 12.75 13.8689 12.75 13.863C12.75 13.8571 12.75 13.8512 12.75 13.8453C12.75 13.8394 12.75 13.8336 12.75 13.8277C12.75 13.8219 12.75 13.8161 12.75 13.8103C12.75 13.8045 12.75 13.7987 12.75 13.7929C12.75 13.7872 12.75 13.7814 12.75 13.7757C12.75 13.77 12.75 13.7642 12.75 13.7586C12.75 13.7529 12.75 13.7472 12.75 13.7415C12.75 13.7359 12.75 13.7302 12.75 13.7246C12.75 13.719 12.75 13.7134 12.75 13.7078C12.75 13.7023 12.75 13.6967 12.75 13.6911C12.75 13.6856 12.75 13.6801 12.75 13.6746C12.75 13.6691 12.75 13.6636 12.75 13.6581C12.75 13.6526 12.75 13.6472 12.75 13.6417C12.75 13.6363 12.75 13.6309 12.75 13.6255C12.75 13.6201 12.75 13.6147 12.75 13.6093C12.75 13.604 12.75 13.5986 12.75 13.5933C12.75 13.588 12.75 13.5827 12.75 13.5774C12.75 13.5721 12.75 13.5668 12.75 13.5615C12.75 13.5563 12.75 13.551 12.75 13.5458C12.75 13.5406 12.75 13.5354 12.75 13.5302C12.75 13.525 12.75 13.5198 12.75 13.5147C12.75 13.5095 12.75 13.5044 12.75 13.4993C12.75 13.4942 12.75 13.4891 12.75 13.484C12.75 13.4789 12.75 13.4738 12.75 13.4688C12.75 13.4637 12.75 13.4587 12.75 13.4537C12.75 13.4487 12.75 13.4437 12.75 13.4387C12.75 13.4337 12.75 13.4288 12.75 13.4238C12.75 13.4189 12.75 13.414 12.75 13.4091C12.75 13.4041 12.75 13.3993 12.75 13.3944C12.75 13.3895 12.75 13.3846 12.75 13.3798C12.75 13.375 12.75 13.3701 12.75 13.3653C12.75 13.3605 12.75 13.3557 12.75 13.351C12.75 13.3462 12.75 13.3414 12.75 13.3367C12.75 13.3319 12.75 13.3272 12.75 13.3225C12.75 13.3178 12.75 13.3131 12.75 13.3084C12.75 13.3038 12.75 13.2991 12.75 13.2945C12.75 13.2898 12.75 13.2852 12.75 13.2806C12.75 13.276 12.75 13.2714 12.75 13.2668C12.75 13.2623 12.75 13.2577 12.75 13.2532C12.75 13.2486 12.75 13.2441 12.75 13.2396C12.75 13.2351 12.75 13.2306 12.75 13.2261C12.75 13.2216 12.75 13.2172 12.75 13.2127C12.75 13.2083 12.75 13.2039 12.75 13.1995C12.75 13.1951 12.75 13.1907 12.75 13.1863C12.75 13.1819 12.75 13.1775 12.75 13.1732C12.75 13.1689 12.75 13.1645 12.75 13.1602C12.75 13.1559 12.75 13.1516 12.75 13.1473C12.75 13.143 12.75 13.1388 12.75 13.1345C12.75 13.1303 12.75 13.126 12.75 13.1218C12.75 13.1176 12.75 13.1134 12.75 13.1092C12.75 13.105 12.75 13.1009 12.75 13.0967C12.75 13.0926 12.75 13.0884 12.75 13.0843C12.75 13.0802 12.75 13.0761 12.75 13.072C12.75 13.0679 12.75 13.0638 12.75 13.0598C12.75 13.0557 12.75 13.0516 12.75 13.0476C12.75 13.0436 12.75 13.0396 12.75 13.0356C12.75 13.0316 12.75 13.0276 12.75 13.0236C12.75 13.0197 12.75 13.0157 12.75 13.0118C12.75 13.0078 12.75 13.0039 12.75 13C12.75 12.9961 12.75 12.9922 12.75 12.9883C12.75 12.9845 12.75 12.9806 12.75 12.9768C12.75 12.9729 12.75 12.9691 12.75 12.9653C12.75 12.9614 12.75 12.9576 12.75 12.9539C12.75 12.9501 12.75 12.9463 12.75 12.9425C12.75 12.9388 12.75 12.9351 12.75 12.9313C12.75 12.9276 12.75 12.9239 12.75 12.9202C12.75 12.9165 12.75 12.9128 12.75 12.9092C12.75 12.9055 12.75 12.9018 12.75 12.8982C12.75 12.8946 12.75 12.8909 12.75 12.8873C12.75 12.8837 12.75 12.8801 12.75 12.8766C12.75 12.873 12.75 12.8694 12.75 12.8659C12.75 12.8623 12.75 12.8588 12.75 12.8553C12.75 12.8517 12.75 12.8482 12.75 12.8448C12.75 12.8413 12.75 12.8378 12.75 12.8343C12.75 12.8309 12.75 12.8274 12.75 12.824C12.75 12.8205 12.75 12.8171 12.75 12.8137C12.75 12.8103 12.75 12.8069 12.75 12.8036C12.75 12.8002 12.75 12.7968 12.75 12.7935C12.75 12.7901 12.75 12.7868 12.75 12.7835C12.75 12.7801 12.75 12.7768 12.75 12.7735C12.75 12.7703 12.75 12.767 12.75 12.7637C12.75 12.7604 12.75 12.7572 12.75 12.754C12.75 12.7507 12.75 12.7475 12.75 12.7443C12.75 12.7411 12.75 12.7379 12.75 12.7347C12.75 12.7315 12.75 12.7284 12.75 12.7252C12.75 12.7221 12.75 12.7189 12.75 12.7158C12.75 12.7127 12.75 12.7096 12.75 12.7065C12.75 12.7034 12.75 12.7003 12.75 12.6972C12.75 12.6941 12.75 12.6911 12.75 12.688C12.75 12.685 12.75 12.682 12.75 12.6789C12.75 12.6759 12.75 12.6729 12.75 12.6699C12.75 12.6669 12.75 12.664 12.75 12.661C12.75 12.658 12.75 12.6551 12.75 12.6521C12.75 12.6492 12.75 12.6463 12.75 12.6434C12.75 12.6405 12.75 12.6376 12.75 12.6347C12.75 12.6318 12.75 12.6289 12.75 12.6261C12.75 12.6232 12.75 12.6204 12.75 12.6175C12.75 12.6147 12.75 12.6119 12.75 12.6091C12.75 12.6063 12.75 12.6035 12.75 12.6007C12.75 12.5979 12.75 12.5951 12.75 12.5924C12.75 12.5896 12.75 12.5869 12.75 12.5842C12.75 12.5814 12.75 12.5787 12.75 12.576C12.75 12.5733 12.75 12.5706 12.75 12.5679C12.75 12.5652 12.75 12.5626 12.75 12.5599C12.75 12.5573 12.75 12.5546 12.75 12.552C12.75 12.5494 12.75 12.5468 12.75 12.5442C12.75 12.5416 12.75 12.539 12.75 12.5364C12.75 12.5338 12.75 12.5312 12.75 12.5287C12.75 12.5261 12.75 12.5236 12.75 12.5211C12.75 12.5185 12.75 12.516 12.75 12.5135C12.75 12.511 12.75 12.5085 12.75 12.506C12.75 12.5035 12.75 12.5011 12.75 12.4986C12.75 12.4962 12.75 12.4937 12.75 12.4913C12.75 12.4889 12.75 12.4864 12.75 12.484C12.75 12.4816 12.75 12.4792 12.75 12.4768C12.75 12.4745 12.75 12.4721 12.75 12.4697C12.75 12.4674 12.75 12.465 12.75 12.4627C12.75 12.4603 12.75 12.458 12.75 12.4557C12.75 12.4534 12.75 12.4511 12.75 12.4488C12.75 12.4465 12.75 12.4442 12.75 12.442C12.75 12.4397 12.75 12.4374 12.75 12.4352C12.75 12.433 12.75 12.4307 12.75 12.4285C12.75 12.4263 12.75 12.4241 12.75 12.4219C12.75 12.4197 12.75 12.4175 12.75 12.4153C12.75 12.4131 12.75 12.411 12.75 12.4088C12.75 12.4067 12.75 12.4045 12.75 12.4024C12.75 12.4003 12.75 12.3982 12.75 12.3961C12.75 12.394 12.75 12.3919 12.75 12.3898C12.75 12.3877 12.75 12.3856 12.75 12.3836C12.75 12.3815 12.75 12.3794 12.75 12.3774C12.75 12.3754 12.75 12.3733 12.75 12.3713C12.75 12.3693 12.75 12.3673 12.75 12.3653C12.75 12.3633 12.75 12.3613 12.75 12.3593C12.75 12.3574 12.75 12.3554 12.75 12.3534C12.75 12.3515 12.75 12.3496 12.75 12.3476C12.75 12.3457 12.75 12.3438 12.75 12.3419C12.75 12.3399 12.75 12.338 12.75 12.3362C12.75 12.3343 12.75 12.3324 12.75 12.3305C12.75 12.3287 12.75 12.3268 12.75 12.325C12.75 12.3231 12.75 12.3213 12.75 12.3194C12.75 12.3176 12.75 12.3158 12.75 12.314C12.75 12.3122 12.75 12.3104 12.75 12.3086C12.75 12.3068 12.75 12.3051 12.75 12.3033C12.75 12.3015 12.75 12.2998 12.75 12.298C12.75 12.2963 12.75 12.2946 12.75 12.2928C12.75 12.2911 12.75 12.2894 12.75 12.2877C12.75 12.286 12.75 12.2843 12.75 12.2826C12.75 12.2809 12.75 12.2793 12.75 12.2776C12.75 12.2759 12.75 12.2743 12.75 12.2727C12.75 12.271 12.75 12.2694 12.75 12.2678C12.75 12.2661 12.75 12.2645 12.75 12.2629C12.75 12.2613 12.75 12.2597 12.75 12.2581C12.75 12.2566 12.75 12.255 12.75 12.2534C12.75 12.2519 12.75 12.2503 12.75 12.2488C12.75 12.2472 12.75 12.2457 12.75 12.2441C12.75 12.2426 12.75 12.2411 12.75 12.2396C12.75 12.2381 12.75 12.2366 12.75 12.2351C12.75 12.2336 12.75 12.2321 12.75 12.2307C12.75 12.2292 12.75 12.2277 12.75 12.2263C12.75 12.2248 12.75 12.2234 12.75 12.222C12.75 12.2205 12.75 12.2191 12.75 12.2177C12.75 12.2163 12.75 12.2149 12.75 12.2135C12.75 12.2121 12.75 12.2107 12.75 12.2093C12.75 12.2079 12.75 12.2066 12.75 12.2052C12.75 12.2039 12.75 12.2025 12.75 12.2012C12.75 12.1998 12.75 12.1985 12.75 12.1972C12.75 12.1959 12.75 12.1945 12.75 12.1932C12.75 12.1919 12.75 12.1906 12.75 12.1893C12.75 12.1881 12.75 12.1868 12.75 12.1855C12.75 12.1842 12.75 12.183 12.75 12.1817C12.75 12.1805 12.75 12.1792 12.75 12.178C12.75 12.1767 12.75 12.1755 12.75 12.1743C12.75 12.1731 12.75 12.1719 12.75 12.1707C12.75 12.1695 12.75 12.1683 12.75 12.1671C12.75 12.1659 12.75 12.1647 12.75 12.1636C12.75 12.1624 12.75 12.1612 12.75 12.1601C12.75 12.1589 12.75 12.1578 12.75 12.1567C12.75 12.1555 12.75 12.1544 12.75 12.1533C12.75 12.1522 12.75 12.151 12.75 12.1499C12.75 12.1488 12.75 12.1477 12.75 12.1467C12.75 12.1456 12.75 12.1445 12.75 12.1434C12.75 12.1423 12.75 12.1413 12.75 12.1402C12.75 12.1392 12.75 12.1381 12.75 12.1371C12.75 12.1361 12.75 12.135 12.75 12.134C12.75 12.133 12.75 12.132 12.75 12.131C12.75 12.1299 12.75 12.1289 12.75 12.128C12.75 12.127 12.75 12.126 12.75 12.125C12.75 12.124 12.75 12.1231 12.75 12.1221C12.75 12.1211 12.75 12.1202 12.75 12.1192C12.75 12.1183 12.75 12.1174 12.75 12.1164C12.75 12.1155 12.75 12.1146 12.75 12.1136C12.75 12.1127 12.75 12.1118 12.75 12.1109C12.75 12.11 12.75 12.1091 12.75 12.1082C12.75 12.1074 12.75 12.1065 12.75 12.1056C12.75 12.1047 12.75 12.1039 12.75 12.103C12.75 12.1021 12.75 12.1013 12.75 12.1004C12.75 12.0996 12.75 12.0988 12.75 12.0979C12.75 12.0971 12.75 12.0963 12.75 12.0955C12.75 12.0947 12.75 12.0938 12.75 12.093C12.75 12.0922 12.75 12.0914 12.75 12.0907C12.75 12.0899 12.75 12.0891 12.75 12.0883C12.75 12.0875 12.75 12.0868 12.75 12.086C12.75 12.0852 12.75 12.0845 12.75 12.0837C12.75 12.083 12.75 12.0823 12.75 12.0815C12.75 12.0808 12.75 12.0801 12.75 12.0793C12.75 12.0786 12.75 12.0779 12.75 12.0772C12.75 12.0765 12.75 12.0758 12.75 12.0751C12.75 12.0744 12.75 12.0737 12.75 12.073C12.75 12.0723 12.75 12.0717 12.75 12.071C12.75 12.0703 12.75 12.0697 12.75 12.069C12.75 12.0683 12.75 12.0677 12.75 12.0671C12.75 12.0664 12.75 12.0658 12.75 12.0651C12.75 12.0645 12.75 12.0639 12.75 12.0633C12.75 12.0626 12.75 12.062 12.75 12.0614C12.75 12.0608 12.75 12.0602 12.75 12.0596C12.75 12.059 12.75 12.0584 12.75 12.0578C12.75 12.0573 12.75 12.0567 12.75 12.0561C12.75 12.0555 12.75 12.055 12.75 12.0544C12.75 12.0538 12.75 12.0533 12.75 12.0527C12.75 12.0522 12.75 12.0516 12.75 12.0511C12.75 12.0506 12.75 12.05 12.75 12.0495C12.75 12.049 12.75 12.0485 12.75 12.0479C12.75 12.0474 12.75 12.0469 12.75 12.0464C12.75 12.0459 12.75 12.0454 12.75 12.0449C12.75 12.0444 12.75 12.0439 12.75 12.0435C12.75 12.043 12.75 12.0425 12.75 12.042C12.75 12.0416 12.75 12.0411 12.75 12.0406C12.75 12.0402 12.75 12.0397 12.75 12.0393C12.75 12.0388 12.75 12.0384 12.75 12.0379C12.75 12.0375 12.75 12.037 12.75 12.0366C12.75 12.0362 12.75 12.0358 12.75 12.0353C12.75 12.0349 12.75 12.0345 12.75 12.0341C12.75 12.0337 12.75 12.0333 12.75 12.0329C12.75 12.0325 12.75 12.0321 12.75 12.0317C12.75 12.0313 12.75 12.0309 12.75 12.0305C12.75 12.0301 12.75 12.0298 12.75 12.0294C12.75 12.029 12.75 12.0287 12.75 12.0283C12.75 12.0279 12.75 12.0276 12.75 12.0272C12.75 12.0269 12.75 12.0265 12.75 12.0262C12.75 12.0258 12.75 12.0255 12.75 12.0252C12.75 12.0248 12.75 12.0245 12.75 12.0242C12.75 12.0238 12.75 12.0235 12.75 12.0232C12.75 12.0229 12.75 12.0226 12.75 12.0223C12.75 12.0219 12.75 12.0216 12.75 12.0213C12.75 12.021 12.75 12.0207 12.75 12.0204C12.75 12.0202 12.75 12.0199 12.75 12.0196C12.75 12.0193 12.75 12.019 12.75 12.0187C12.75 12.0185 12.75 12.0182 12.75 12.0179C12.75 12.0177 12.75 12.0174 12.75 12.0171C12.75 12.0169 12.75 12.0166 12.75 12.0164C12.75 12.0161 12.75 12.0159 12.75 12.0156C12.75 12.0154 12.75 12.0151 12.75 12.0149C12.75 12.0147 12.75 12.0144 12.75 12.0142C12.75 12.014 12.75 12.0138 12.75 12.0135C12.75 12.0133 12.75 12.0131 12.75 12.0129C12.75 12.0127 12.75 12.0125 12.75 12.0122C12.75 12.012 12.75 12.0118 12.75 12.0116C12.75 12.0114 12.75 12.0112 12.75 12.011C12.75 12.0108 12.75 12.0107 12.75 12.0105C12.75 12.0103 12.75 12.0101 12.75 12.0099C12.75 12.0097 12.75 12.0096 12.75 12.0094C12.75 12.0092 12.75 12.009 12.75 12.0089C12.75 12.0087 12.75 12.0085 12.75 12.0084C12.75 12.0082 12.75 12.0081 12.75 12.0079C12.75 12.0078 12.75 12.0076 12.75 12.0075C12.75 12.0073 12.75 12.0072 12.75 12.007C12.75 12.0069 12.75 12.0067 12.75 12.0066C12.75 12.0065 12.75 12.0063 12.75 12.0062C12.75 12.0061 12.75 12.0059 12.75 12.0058C12.75 12.0057 12.75 12.0056 12.75 12.0054C12.75 12.0053 12.75 12.0052 12.75 12.0051C12.75 12.005 12.75 12.0049 12.75 12.0047C12.75 12.0046 12.75 12.0045 12.75 12.0044C12.75 12.0043 12.75 12.0042 12.75 12.0041C12.75 12.004 12.75 12.0039 12.75 12.0038C12.75 12.0037 12.75 12.0036 12.75 12.0035C12.75 12.0034 12.75 12.0034 12.75 12.0033C12.75 12.0032 12.75 12.0031 12.75 12.003C12.75 12.0029 12.75 12.0029 12.75 12.0028C12.75 12.0027 12.75 12.0026 12.75 12.0026C12.75 12.0025 12.75 12.0024 12.75 12.0023C12.75 12.0023 12.75 12.0022 12.75 12.0021C12.75 12.0021 12.75 12.002 12.75 12.002C12.75 12.0019 12.75 12.0018 12.75 12.0018C12.75 12.0017 12.75 12.0017 12.75 12.0016C12.75 12.0016 12.75 12.0015 12.75 12.0015C12.75 12.0014 12.75 12.0014 12.75 12.0013C12.75 12.0013 12.75 12.0012 12.75 12.0012C12.75 12.0011 12.75 12.0011 12.75 12.0011C12.75 12.001 12.75 12.001 12.75 12.0009C12.75 12.0009 12.75 12.0009 12.75 12.0008C12.75 12.0008 12.75 12.0008 12.75 12.0007C12.75 12.0007 12.75 12.0007 12.75 12.0006C12.75 12.0006 12.75 12.0006 12.75 12.0006C12.75 12.0005 12.75 12.0005 12.75 12.0005C12.75 12.0005 12.75 12.0004 12.75 12.0004C12.75 12.0004 12.75 12.0004 12.75 12.0004C12.75 12.0003 12.75 12.0003 12.75 12.0003C12.75 12.0003 12.75 12.0003 12.75 12.0002C12.75 12.0002 12.75 12.0002 12.75 12.0002C12.75 12.0002 12.75 12.0002 12.75 12.0002C12.75 12.0002 12.75 12.0001 12.75 12.0001C12.75 12.0001 12.75 12.0001 12.75 12.0001C12.75 12.0001 12.75 12.0001 12.75 12.0001C12.75 12.0001 12.75 12.0001 12.75 12.0001C12.75 12.0001 12.75 12.0001 12.75 12C12.75 12 12.75 12 12.75 12C12.75 12 12.75 12 12.75 12C12.75 12 12.75 12 12.75 12C12.75 12 12.75 12 12.75 12C12.75 12 12.75 12 12.75 12C12.75 12 12.75 12 12.75 12C12.75 12 12.75 12 12.75 12C12.75 12 12.75 12 12.75 12H12ZM12.75 12V4H11.25V12H12.75Z" fill="white"/>
</svg>
