<svg width="24" height="24" viewBox="0 0 24 24" fill="none" xmlns="http://www.w3.org/2000/svg">
<path fill-rule="evenodd" clip-rule="evenodd" d="M10.9203 7.15942C10.9203 6.88328 11.1441 6.65942 11.4203 6.65942H12.6377C12.9138 6.65942 13.1377 6.88328 13.1377 7.15942C13.1377 7.43557 12.9138 7.65942 12.6377 7.65942H11.4203C11.1441 7.65942 10.9203 7.43557 10.9203 7.15942Z" fill="white"/>
<path fill-rule="evenodd" clip-rule="evenodd" d="M10.9203 8.9855C10.9203 8.70936 11.1441 8.4855 11.4203 8.4855H12.6377C12.9138 8.4855 13.1377 8.70936 13.1377 8.9855C13.1377 9.26165 12.9138 9.4855 12.6377 9.4855H11.4203C11.1441 9.4855 10.9203 9.26165 10.9203 8.9855Z" fill="white"/>
<path fill-rule="evenodd" clip-rule="evenodd" d="M11.4203 4.83334C11.6964 4.83334 11.9203 5.0572 11.9203 5.33334V7.09856C11.9203 7.3747 11.6964 7.59856 11.4203 7.59856C11.1441 7.59856 10.9203 7.3747 10.9203 7.09856V5.33334C10.9203 5.0572 11.1441 4.83334 11.4203 4.83334Z" fill="white"/>
<path fill-rule="evenodd" clip-rule="evenodd" d="M4.83331 11.4203C4.83331 11.1441 5.05717 10.9203 5.33331 10.9203H6.5507C6.82685 10.9203 7.0507 11.1441 7.0507 11.4203C7.0507 11.6964 6.82685 11.9203 6.5507 11.9203H5.33331C5.05717 11.9203 4.83331 11.6964 4.83331 11.4203Z" fill="white"/>
<path fill-rule="evenodd" clip-rule="evenodd" d="M7.87683 12.029C7.87683 11.7528 8.10069 11.529 8.37683 11.529H12.029C12.3051 11.529 12.529 11.7528 12.529 12.029C12.529 12.3051 12.3051 12.529 12.029 12.529H8.37683C8.10069 12.529 7.87683 12.3051 7.87683 12.029Z" fill="white"/>
<path fill-rule="evenodd" clip-rule="evenodd" d="M10.9203 18.7246C10.9203 18.4485 11.1441 18.2246 11.4203 18.2246H12.6377C12.9138 18.2246 13.1377 18.4485 13.1377 18.7246C13.1377 19.0008 12.9138 19.2246 12.6377 19.2246H11.4203C11.1441 19.2246 10.9203 19.0008 10.9203 18.7246Z" fill="white"/>
<path fill-rule="evenodd" clip-rule="evenodd" d="M12.029 11.7116C12.3051 11.7116 12.529 11.9355 12.529 12.2116V13.8551C12.529 14.1312 12.3051 14.3551 12.029 14.3551C11.7528 14.3551 11.529 14.1312 11.529 13.8551V12.2116C11.529 11.9355 11.7528 11.7116 12.029 11.7116Z" fill="white"/>
<path fill-rule="evenodd" clip-rule="evenodd" d="M13.8551 13.9638C14.1312 13.9638 14.3551 14.1876 14.3551 14.4638V16.2899C14.3551 16.566 14.1312 16.7899 13.8551 16.7899C13.579 16.7899 13.3551 16.566 13.3551 16.2899V14.4638C13.3551 14.1876 13.579 13.9638 13.8551 13.9638Z" fill="white"/>
<path fill-rule="evenodd" clip-rule="evenodd" d="M18.7246 16.3986C19.0008 16.3986 19.2246 16.6224 19.2246 16.8986V18.7246C19.2246 19.0008 19.0008 19.2246 18.7246 19.2246C18.4485 19.2246 18.2246 19.0008 18.2246 18.7246V16.8986C18.2246 16.6224 18.4485 16.3986 18.7246 16.3986Z" fill="white"/>
<path fill-rule="evenodd" clip-rule="evenodd" d="M11.4203 15.7899C11.6964 15.7899 11.9203 16.0137 11.9203 16.2899V18.7246C11.9203 19.0008 11.6964 19.2246 11.4203 19.2246C11.1441 19.2246 10.9203 19.0008 10.9203 18.7246V16.2899C10.9203 16.0137 11.1441 15.7899 11.4203 15.7899Z" fill="white"/>
<path fill-rule="evenodd" clip-rule="evenodd" d="M15.0724 17.0072C15.3486 17.0072 15.5724 17.2311 15.5724 17.5072V18.7246C15.5724 19.0008 15.3486 19.2246 15.0724 19.2246C14.7963 19.2246 14.5724 19.0008 14.5724 18.7246V17.5072C14.5724 17.2311 14.7963 17.0072 15.0724 17.0072Z" fill="white"/>
<path fill-rule="evenodd" clip-rule="evenodd" d="M18.7246 13.7812C19.0008 13.7812 19.2246 14.005 19.2246 14.2812V15.1333C19.2246 15.4095 19.0008 15.6333 18.7246 15.6333C18.4485 15.6333 18.2246 15.4095 18.2246 15.1333V14.2812C18.2246 14.005 18.4485 13.7812 18.7246 13.7812Z" fill="white"/>
<path fill-rule="evenodd" clip-rule="evenodd" d="M6.55072 10.9203C6.82686 10.9203 7.05072 11.1441 7.05072 11.4203V12.6377C7.05072 12.9138 6.82686 13.1377 6.55072 13.1377C6.27458 13.1377 6.05072 12.9138 6.05072 12.6377V11.4203C6.05072 11.1441 6.27458 10.9203 6.55072 10.9203Z" fill="white"/>
<path fill-rule="evenodd" clip-rule="evenodd" d="M8.37683 10.9203C8.65297 10.9203 8.87683 11.1441 8.87683 11.4203V12.029C8.87683 12.3051 8.65297 12.529 8.37683 12.529C8.10069 12.529 7.87683 12.3051 7.87683 12.029V11.4203C7.87683 11.1441 8.10069 10.9203 8.37683 10.9203Z" fill="white"/>
<path fill-rule="evenodd" clip-rule="evenodd" d="M14.5724 11.4203C14.5724 11.1441 14.7963 10.9203 15.0724 10.9203H17.2638C17.5399 10.9203 17.7638 11.1441 17.7638 11.4203V12.6377C17.7638 12.9138 17.5399 13.1377 17.2638 13.1377C16.9876 13.1377 16.7638 12.9138 16.7638 12.6377V11.9203H15.0724C14.7963 11.9203 14.5724 11.6964 14.5724 11.4203Z" fill="white"/>
<path fill-rule="evenodd" clip-rule="evenodd" d="M13.3551 14.4638C13.3551 14.1876 13.579 13.9638 13.8551 13.9638H16.2899C16.566 13.9638 16.7899 14.1876 16.7899 14.4638V15.3768C16.7899 15.653 16.566 15.8768 16.2899 15.8768C16.0137 15.8768 15.7899 15.653 15.7899 15.3768V14.9638H13.8551C13.579 14.9638 13.3551 14.7399 13.3551 14.4638Z" fill="white"/>
<path fill-rule="evenodd" clip-rule="evenodd" d="M16.7638 12.6377C16.7638 12.3616 16.9877 12.1377 17.2638 12.1377H18.7247C19.0008 12.1377 19.2247 12.3616 19.2247 12.6377C19.2247 12.9138 19.0008 13.1377 18.7247 13.1377H17.2638C16.9877 13.1377 16.7638 12.9138 16.7638 12.6377Z" fill="white"/>
<path fill-rule="evenodd" clip-rule="evenodd" d="M16.3986 18.7246C16.3986 18.4485 16.6224 18.2246 16.8986 18.2246H18.7246C19.0008 18.2246 19.2246 18.4485 19.2246 18.7246C19.2246 19.0008 19.0008 19.2246 18.7246 19.2246H16.8986C16.6224 19.2246 16.3986 19.0008 16.3986 18.7246Z" fill="white"/>
<path fill-rule="evenodd" clip-rule="evenodd" d="M14.5724 6.00001C14.5724 5.35568 15.0948 4.83334 15.7391 4.83334H18.058C18.7023 4.83334 19.2246 5.35568 19.2246 6.00001V8.31885C19.2246 8.96318 18.7023 9.48552 18.058 9.48552H15.7391C15.0948 9.48552 14.5724 8.96318 14.5724 8.31885V6.00001ZM15.7391 5.83334C15.6471 5.83334 15.5724 5.90796 15.5724 6.00001V8.31885C15.5724 8.4109 15.6471 8.48552 15.7391 8.48552H18.058C18.15 8.48552 18.2246 8.4109 18.2246 8.31885V6.00001C18.2246 5.90796 18.15 5.83334 18.058 5.83334H15.7391Z" fill="white"/>
<path fill-rule="evenodd" clip-rule="evenodd" d="M4.83331 6.00001C4.83331 5.35568 5.35565 4.83334 5.99998 4.83334H8.31882C8.96315 4.83334 9.48549 5.35568 9.48549 6.00001V8.31885C9.48549 8.96318 8.96315 9.48552 8.31882 9.48552H5.99998C5.35565 9.48552 4.83331 8.96318 4.83331 8.31885V6.00001ZM5.99998 5.83334C5.90793 5.83334 5.83331 5.90796 5.83331 6.00001V8.31885C5.83331 8.4109 5.90793 8.48552 5.99998 8.48552H8.31882C8.41087 8.48552 8.48549 8.4109 8.48549 8.31885V6.00001C8.48549 5.90796 8.41087 5.83334 8.31882 5.83334H5.99998Z" fill="white"/>
<path fill-rule="evenodd" clip-rule="evenodd" d="M4.83331 15.7391C4.83331 15.0948 5.35565 14.5724 5.99998 14.5724H8.31882C8.96315 14.5724 9.48549 15.0948 9.48549 15.7391V18.058C9.48549 18.7023 8.96315 19.2246 8.31882 19.2246H5.99998C5.35565 19.2246 4.83331 18.7023 4.83331 18.058V15.7391ZM5.99998 15.5724C5.90793 15.5724 5.83331 15.6471 5.83331 15.7391V18.058C5.83331 18.15 5.90793 18.2246 5.99998 18.2246H8.31882C8.41087 18.2246 8.48549 18.15 8.48549 18.058V15.7391C8.48549 15.6471 8.41087 15.5724 8.31882 15.5724H5.99998Z" fill="white"/>
</svg>
