<svg width="28" height="28" viewBox="0 0 28 28" fill="none" xmlns="http://www.w3.org/2000/svg">
<path fill-rule="evenodd" clip-rule="evenodd" d="M14 16.3332C12.7113 16.3332 11.6667 15.2885 11.6667 13.9998C11.6667 12.7112 12.7113 11.6665 14 11.6665C15.2887 11.6665 16.3333 12.7112 16.3333 13.9998C16.3333 14.6187 16.0875 15.2122 15.6499 15.6498C15.2123 16.0873 14.6188 16.3332 14 16.3332Z" stroke="white" stroke-width="1.5" stroke-linecap="round" stroke-linejoin="round"/>
<path fill-rule="evenodd" clip-rule="evenodd" d="M20.2032 18.7401V17.1744C20.2032 16.7867 20.3572 16.4149 20.6313 16.1407L21.7385 15.0336C22.3094 14.4627 22.3094 13.5371 21.7385 12.9662L20.6313 11.8591C20.3572 11.5849 20.2032 11.2131 20.2032 10.8254V9.25857C20.2032 8.45123 19.5487 7.79674 18.7413 7.79674H17.1745C16.7868 7.79674 16.415 7.64272 16.1408 7.36857L15.0337 6.26141C14.4628 5.69053 13.5372 5.69053 12.9663 6.26141L11.8592 7.36857C11.585 7.64272 11.2132 7.79674 10.8255 7.79674H9.25867C8.87076 7.79674 8.49876 7.95091 8.22458 8.22531C7.9504 8.49971 7.79652 8.87184 7.79683 9.25974V10.8254C7.79683 11.2131 7.64281 11.5849 7.36867 11.8591L6.2615 12.9662C5.69063 13.5371 5.69063 14.4627 6.2615 15.0336L7.36867 16.1407C7.64281 16.4149 7.79683 16.7867 7.79683 17.1744V18.7401C7.79683 19.5474 8.45132 20.2019 9.25867 20.2019H10.8255C11.2132 20.2019 11.585 20.3559 11.8592 20.6301L12.9663 21.7372C13.5372 22.3081 14.4628 22.3081 15.0337 21.7372L16.1408 20.6301C16.415 20.3559 16.7868 20.2019 17.1745 20.2019H18.7402C19.1281 20.2022 19.5002 20.0483 19.7746 19.7742C20.049 19.5 20.2032 19.128 20.2032 18.7401Z" stroke="white" stroke-width="1.5" stroke-linecap="round" stroke-linejoin="round"/>
</svg>
